/* XPM */
static char * configure_debian_xpm[] = {
"32 32 186 2",
"  	c None",
". 	c #BF0348",
"+ 	c #BE0247",
"@ 	c #BA0246",
"# 	c #840232",
"$ 	c #4B011C",
"% 	c #BB0346",
"& 	c #A4023E",
"* 	c #5A5656",
"= 	c #D5D4D1",
"- 	c #6A6864",
"; 	c #383735",
"> 	c #BD0247",
", 	c #B80546",
"' 	c #950539",
") 	c #3C3B3A",
"! 	c #C6C4C1",
"~ 	c #DFDEDA",
"{ 	c #B4B1AB",
"] 	c #5E5D59",
"^ 	c #AA0240",
"/ 	c #000000",
"( 	c #7C7975",
"_ 	c #D5D2CD",
": 	c #B8B6AE",
"< 	c #444340",
"[ 	c #BB0246",
"} 	c #B70245",
"| 	c #B90246",
"1 	c #2C2A29",
"2 	c #C4C1B8",
"3 	c #494845",
"4 	c #810230",
"5 	c #492130",
"6 	c #59464C",
"7 	c #7A012E",
"8 	c #63615D",
"9 	c #D1CEC9",
"0 	c #BFBCB4",
"a 	c #373734",
"b 	c #870232",
"c 	c #5D5558",
"d 	c #DFDDDB",
"e 	c #6B595D",
"f 	c #494644",
"g 	c #D5D3CF",
"h 	c #D1CDC6",
"i 	c #96938B",
"j 	c #2B2827",
"k 	c #7F0230",
"l 	c #412B33",
"m 	c #BFBCBB",
"n 	c #D0CECA",
"o 	c #A3A29D",
"p 	c #797876",
"q 	c #EFEEEB",
"r 	c #DDDAD3",
"s 	c #C5C1B9",
"t 	c #A6A39D",
"u 	c #6C6A66",
"v 	c #433637",
"w 	c #181112",
"x 	c #6C0128",
"y 	c #4D2A36",
"z 	c #E0DFDD",
"A 	c #E8E7E4",
"B 	c #EDEBE8",
"C 	c #E7E3DD",
"D 	c #BAB6AC",
"E 	c #9B9891",
"F 	c #C1BEB7",
"G 	c #CDC8BE",
"H 	c #C5C2B9",
"I 	c #9C9A94",
"J 	c #4A4944",
"K 	c #950238",
"L 	c #980239",
"M 	c #292123",
"N 	c #8E8E8C",
"O 	c #ACAAA7",
"P 	c #817F79",
"Q 	c #2D2A22",
"R 	c #1D1B18",
"S 	c #827F79",
"T 	c #CFCAC1",
"U 	c #D4D0C8",
"V 	c #D2CEC6",
"W 	c #DCD8D1",
"X 	c #99968E",
"Y 	c #454240",
"Z 	c #39101D",
"` 	c #A7023F",
" .	c #181716",
"..	c #090908",
"+.	c #181313",
"@.	c #403A39",
"#.	c #C3C0B7",
"$.	c #D0CCC2",
"%.	c #CAC5BC",
"&.	c #CDCAC3",
"*.	c #A2A19B",
"=.	c #3D3A35",
"-.	c #B40244",
";.	c #A1023D",
">.	c #2F131B",
",.	c #7D736F",
"'.	c #DBD9D3",
").	c #E3DFD8",
"!.	c #CDC8BF",
"~.	c #CBC6BE",
"{.	c #DEDBD3",
"].	c #A29F97",
"^.	c #4A3C3D",
"/.	c #6F0A2E",
"(.	c #B30243",
"_.	c #510E24",
":.	c #59514E",
"<.	c #BCB9B1",
"[.	c #E7E5DF",
"}.	c #DAD6CD",
"|.	c #CBC6BC",
"1.	c #D6D3CA",
"2.	c #CECBC4",
"3.	c #9F9894",
"4.	c #372726",
"5.	c #BC0247",
"6.	c #B80245",
"7.	c #6D0129",
"8.	c #380015",
"9.	c #7F7874",
"0.	c #CFCBC6",
"a.	c #ECEAE4",
"b.	c #D6D2CA",
"c.	c #C9C5BC",
"d.	c #D2CEC7",
"e.	c #D7D4CD",
"f.	c #73726C",
"g.	c #38352F",
"h.	c #BC0246",
"i.	c #3B0B1C",
"j.	c #3E3335",
"k.	c #C3BEB7",
"l.	c #E8E5DF",
"m.	c #E7E4DD",
"n.	c #D1CCC3",
"o.	c #D4D1C9",
"p.	c #B8B5AE",
"q.	c #747067",
"r.	c #050503",
"s.	c #5B5955",
"t.	c #C0BEB8",
"u.	c #EEEBE7",
"v.	c #E2DED7",
"w.	c #CDCABF",
"x.	c #C7C3B8",
"y.	c #DDDAD2",
"z.	c #C8C5BD",
"A.	c #6A6763",
"B.	c #2F2D2B",
"C.	c #8E8B86",
"D.	c #E4E1DC",
"E.	c #EBE9E3",
"F.	c #D8D4CA",
"G.	c #CEC9BE",
"H.	c #9F9C93",
"I.	c #B2AFA7",
"J.	c #73716C",
"K.	c #262522",
"L.	c #9A9690",
"M.	c #DBD9D4",
"N.	c #E5E3DD",
"O.	c #474742",
"P.	c #55524B",
"Q.	c #B8B7B5",
"R.	c #191816",
"S.	c #1B1A17",
"T.	c #5D5B57",
"U.	c #BEBAB2",
"V.	c #AFACA6",
"W.	c #D4D2CE",
"X.	c #7E7C76",
"Y.	c #161513",
"Z.	c #1A1918",
"`.	c #64605A",
" +	c #6B6862",
".+	c #0B0A08",
"                                                                ",
"                              .                                 ",
"                        . . . . . . . . . .                     ",
"                    . . . . . . . . . . . . . . .               ",
"                  . . . . . . .         . . . . . .             ",
"                . . . . . .                 . . . . .           ",
"              . + + + .                         . . . .         ",
"              @ # $                               . . .         ",
"            % & * = - ;                           . . .         ",
"          > , ' ) ! ~ { ]         . . .             . .         ",
"          + @ ^   / ( _ : <   [ .                   . .         ",
"          } |       1 ! 2 3 4                       . .         ",
"        5 6 7       8 9 0 a b                       . .         ",
"        c d e /   f g h i j k                       . .         ",
"        l m n o p q r s t u v w                     . .         ",
"        x y z A B C D E F G H I J                 . .           ",
"        K L M N O P Q R S T U V W X Y Z           . .           ",
"          ` x    ...    +.@.#.C $.%.&.*.=.      > .             ",
"          -.;.              >.,.'.).!.~.{.].^./.`               ",
"          [ (.                _.:.<.[.}.|.1.2.3.4.              ",
"          + 5.6.                7.8.9.0.a.b.c.d.e.f.g.          ",
"          . . + h.                  i.j.k.l.m.n.%.o.p.q.r.      ",
"          . . . .                       / s.t.u.v.w.x.y.z.A.    ",
"            . . .                           B.C.D.E.F.G.H.I.J.  ",
"            . . .                               K.L.M.N.O.P.Q.R.",
"              . . .                               S.T.U.V.W.X.Y.",
"              . . . .                                 Z.`. +.+  ",
"                . . . .                                         ",
"                    . . .                                       ",
"                        . . .                                   ",
"                              . .                               ",
"                                                                "};
